<svg width="175" height="56" viewBox="0 0 175 56" fill="none" xmlns="http://www.w3.org/2000/svg">
<rect width="175" height="56" fill="black"/>
<path fill-rule="evenodd" clip-rule="evenodd" d="M75.5242 21V16.1H62.184C60.7279 16.1256 59.7592 17.1312 59.7585 18.55C59.7592 18.3894 59.7585 21.0033 59.7585 21H64.6095V39.9875H70.6732V21H75.5242Z" fill="white"/>
<path fill-rule="evenodd" clip-rule="evenodd" d="M47.6312 16.1C47.6312 16.106 41.1019 16.1 40.9611 16.1C39.9472 16.1 38.9762 16.7904 38.5356 17.9375L34.2911 27.125V16.1H28.2274C27.082 16.1 26.111 16.7904 25.8019 17.9375L16.1 39.9875H22.77L29.4401 25.2875V39.9875H34.8974L41.5675 25.2875V39.9875H47.6312V16.1Z" fill="white"/>
<path fill-rule="evenodd" clip-rule="evenodd" d="M57.9395 16.1C57.9395 16.1047 54.1516 16.1 54.3013 16.1C52.8916 16.1 51.8839 17.1146 51.8759 18.55V39.9875H57.9395V16.1Z" fill="white"/>
<path fill-rule="evenodd" clip-rule="evenodd" d="M105.843 34.475V30.1875H112.513V25.2875H105.843V21H113.119V16.1H102.205C100.809 16.1 99.8025 17.0896 99.7791 18.55V39.9875H113.119V34.475H105.843Z" fill="white"/>
<path fill-rule="evenodd" clip-rule="evenodd" d="M89.3411 23.7112C89.3411 26.2713 87.1597 26.6472 85.2 26.6478C85.1888 26.6472 85.1796 26.6411 85.1691 26.6411C84.8619 26.6411 84.6126 26.8964 84.6126 27.2111L84.6159 20.7767H85.1994C87.159 20.7767 89.3411 21.1533 89.3411 23.7112ZM84.6126 27.2158V27.2111C84.6126 27.2125 84.6132 27.2138 84.6132 27.2158H84.6126ZM87.6118 16.1H80.8303C79.564 16.1 78.556 17.1092 78.556 18.3544V39.9875H84.6638L84.6025 30.4205H84.6658L90.4367 39.9875H97.9599L90.5951 29.8306C93.8814 29.2446 95.6769 26.4756 95.6769 23.2586C95.6769 18.2891 92.2023 16.1 87.6118 16.1Z" fill="white"/>
<path fill-rule="evenodd" clip-rule="evenodd" d="M131.917 39.9875V16.1H124.64C123.2 16.1 122.215 17.1199 122.215 18.55V21H125.853V39.9875H131.917Z" fill="#FF6D00"/>
<path fill-rule="evenodd" clip-rule="evenodd" d="M153.695 18.9961C154.141 18.9961 154.554 19.1336 154.902 19.364C152.737 17.3449 149.846 16.1 146.658 16.1C139.96 16.1 134.53 21.5528 134.53 28.2796C134.53 30.9218 135.377 33.3598 136.802 35.3553L141.106 30.9507C140.726 30.1329 140.507 29.2207 140.507 28.2546C140.507 24.7764 143.261 21.957 146.657 21.957C147.601 21.957 148.491 22.1807 149.29 22.5694L152.181 19.5984L152.189 19.6065C152.586 19.2306 153.113 18.9961 153.695 18.9961ZM156.666 21.4396L152.347 25.8691C152.642 26.6055 152.807 27.4099 152.807 28.2547C152.807 31.7329 150.053 34.5523 146.657 34.5523C145.832 34.5523 145.046 34.3825 144.327 34.0814L141.311 37.1763C140.912 37.526 140.4 37.7496 139.834 37.7496C139.38 37.7496 138.959 37.6088 138.607 37.371C140.749 39.2856 143.564 40.4592 146.658 40.4592C153.356 40.4592 158.786 35.0064 158.786 28.2796C158.786 25.7378 157.995 23.39 156.666 21.4396Z" fill="#FF6D00"/>
</svg>
